<svg viewBox="0 0 32 32" xmlns="http://www.w3.org/2000/svg">
    <path
        d="M12.5 13h-1a1 1 0 0 0 0 2h1a1 1 0 0 0 0-2ZM12.5 9h-1a1 1 0 0 0 0 2h1a1 1 0 0 0 0-2ZM12.5 5h-1a1 1 0 0 0 0 2h1a1 1 0 0 0 0-2ZM8.5 13h-1a1 1 0 0 0 0 2h1a1 1 0 0 0 0-2ZM8.5 9h-1a1 1 0 0 0 0 2h1a1 1 0 0 0 0-2ZM8.5 5h-1a1 1 0 0 0 0 2h1a1 1 0 0 0 0-2ZM16.5 13h-1a1 1 0 0 0 0 2h1a1 1 0 0 0 0-2ZM16.5 9h-1a1 1 0 0 0 0 2h1a1 1 0 0 0 0-2ZM16.5 5h-1a1 1 0 0 0 0 2h1a1 1 0 0 0 0-2Z"
        fill="#ffffff" class="fill-000000"></path>
    <path
        d="M22 21h-1V2a1 1 0 0 0-1-1H4a1 1 0 0 0-1 1v19H2a1 1 0 0 0 0 2h20a1 1 0 0 0 0-2Zm-12 0v-2h4v2Zm6 0v-3a1 1 0 0 0-1-1H9a1 1 0 0 0-1 1v3H5V3h14v18Z"
        fill="#ffffff" class="fill-000000"></path>
</svg>