<svg viewBox="0 0 32 32" xml:space="preserve" xmlns="http://www.w3.org/2000/svg">
    <g fill="#ffffff" class="fill-1d1d1b">
        <path
            d="M22 1H4a.75.75 0 0 0-.75.75v18.401a.75.75 0 0 0 .22.53l4.098 4.1a.75.75 0 0 0 .53.219H22a.75.75 0 0 0 .75-.75V1.75A.75.75 0 0 0 22 1zM7.349 22.44 5.81 20.9h1.538v1.538zM21.25 23.5H8.849v-3.349a.75.75 0 0 0-.75-.75H4.75V2.5h16.5v21z">
        </path>
        <path
            d="M7.05 5.5h5.388a.5.5 0 1 0 0-1H7.048a.5.5 0 1 0 0 1zM7.05 7.5h2.693a.5.5 0 1 0 0-1H7.05a.5.5 0 1 0 0 1zM10.875 7a.5.5 0 0 0 .5.5h3.25a.5.5 0 1 0 0-1h-3.25a.5.5 0 0 0-.5.5zM7 15.75h12a.5.5 0 0 0 .5-.5v-6a.5.5 0 0 0-.5-.5H7a.5.5 0 0 0-.5.5v6a.5.5 0 0 0 .5.5zm9.5-4.719v1h-1.625v-1H16.5zm-1.625-.5V9.75H16.5v.781h-1.625zm0 3v-1H16.5v1h-1.625zm1.625.5v.719h-1.625v-.719H16.5zm-9-1.5h6.875v1H7.5v-1zm9.5 0h1.5v1H17v-1zm1.5-.5H17v-1h1.5v1zm-4.125 0H7.5v-1h6.875v1zm-6.875 2h6.875v.719H7.5v-.719zm9.5.719v-.719h1.5v.719H17zm1.5-4.219H17V9.75h1.5v.781zm-4.125-.781v.781H7.5V9.75h6.875zM16.817 16.35c-.87 0-1.631.462-2.064 1.15h-.704a.5.5 0 1 0 0 1h.356c-.012.097-.03.192-.03.292 0 1.347 1.096 2.442 2.442 2.442s2.442-1.095 2.442-2.442-1.095-2.442-2.442-2.442zm0 4.384a1.945 1.945 0 0 1-1.942-1.942c0-.1.015-.196.03-.292h.35c-.018.095-.03.192-.03.292 0 .878.714 1.592 1.592 1.592a1.593 1.593 0 0 0 0-3.185c-.345 0-.662.114-.924.301h-.515a1.93 1.93 0 0 1 1.44-.65c1.07 0 1.941.87 1.941 1.942s-.87 1.942-1.942 1.942zM16.75 18.5a.5.5 0 0 0 .5-.5.489.489 0 0 0-.06-.225c.417.153.72.547.72 1.017a1.093 1.093 0 0 1-2.184 0c0-.104.031-.197.058-.292h.966zM12.438 17.5H7.048a.5.5 0 1 0 0 1h5.388a.5.5 0 1 0 0-1z">
        </path>
    </g>
</svg>