<svg viewBox="0 0 32 32" xmlns="http://www.w3.org/2000/svg">
    <g data-name="Layer 20">
        <path d="M16 22a6 6 0 1 1 6-6 6 6 0 0 1-6 6Zm0-10a4 4 0 1 0 4 4 4 4 0 0 0-4-4Z" fill="#ffffff"
            class="fill-101820"></path>
        <path
            d="M21 31H11a4 4 0 0 1-4-4v-2.55a1 1 0 0 1 .63-.92l3.64-1.46a1 1 0 1 1 .73 1.86l-3 1.2V27a2 2 0 0 0 2 2h10a2 2 0 0 0 2-2v-1.87l-3-1.2a1 1 0 0 1 .74-1.86l3.64 1.46a1 1 0 0 1 .63.92V27A4 4 0 0 1 21 31ZM9 11a5 5 0 1 1 5-5 5 5 0 0 1-5 5Zm0-8a3 3 0 1 0 3 3 3 3 0 0 0-3-3ZM8 19.39H5a4 4 0 0 1-4-4v-1.75a1 1 0 0 1 .63-.93l3.19-1.25a1 1 0 0 1 1.29.54 1 1 0 0 1-.56 1.3L3 14.32v1.07a2 2 0 0 0 2 2h3a1 1 0 0 1 0 2ZM23 11a5 5 0 1 1 5-5 5 5 0 0 1-5 5Zm0-8a3 3 0 1 0 3 3 3 3 0 0 0-3-3ZM27 19.39h-3a1 1 0 0 1 0-2h3a2 2 0 0 0 2-2v-1.07l-2.55-1a1 1 0 0 1-.56-1.3 1 1 0 0 1 1.29-.57l3.19 1.25a1 1 0 0 1 .63.93v1.75a4 4 0 0 1-4 4.01Z"
            fill="#ffffff" class="fill-101820"></path>
    </g>
</svg>