<svg viewBox="0 0 256 256" xml:space="preserve" xmlns="http://www.w3.org/2000/svg" enable-background="new 0 0 256 256">
    <path
        d="M29.4 190.9c2.8 0 5-2.2 5-5v-52.3l30.2-16.2v42.9c0 2.8 2.2 5 5 5s5-2.2 5-5v-59.6l-50.1 26.9v58.3c-.1 2.7 2.1 5 4.9 5zM89.6 153c2.8 0 5-2.2 5-5V59.6l30.2-16.2v143.8c0 2.8 2.2 5 5 5s5-2.2 5-5V26.7L84.6 53.6V148c0 2.7 2.2 5 5 5zM149.8 185.7c2.8 0 5-2.2 5-5V85.4L185 69.2v86.3c0 2.8 2.2 5 5 5s5-2.2 5-5v-103l-50.1 26.9v101.3c-.1 2.8 2.2 5 4.9 5z"
        fill="#ffffff" class="fill-000000"></path>
    <path
        d="M250 146.2c-.9-1.5-2.5-2.5-4.3-2.5h-34.5c-1.8 0-3.4 1-4.3 2.5-.9 1.5-.9 3.4 0 5l6.2 10.7-27.5 16.7c-4.2 2.6-8.3 5.1-12.5 7.7-3 1.9-6 3.7-8.9 5.6-7.8 5-14.7 9.5-21.1 13.9-3.3 2.2-6.5 4.5-9.8 6.7l-44.8-43.8-80.8 51.4c-2.3 1.5-3 4.6-1.5 6.9 1 1.5 2.6 2.3 4.2 2.3.9 0 1.8-.3 2.7-.8l74-47.1 45.2 44.1 6.1-4.4c3.4-2.4 6.8-4.8 10.3-7.1 6.3-4.3 13.1-8.7 20.9-13.7 2.9-1.9 5.9-3.7 8.8-5.6 4.1-2.6 8.3-5.1 12.4-7.7l25.3-15.5 2-1.2 6.1 10.6c.9 1.5 2.5 2.5 4.3 2.5s3.4-1 4.3-2.5l17.3-29.9c.8-1.3.8-3.2-.1-4.8zm-21.6 22.4-8.6-14.9H237l-8.6 14.9z"
        fill="#ffffff" class="fill-000000"></path>
</svg>